<?xml version="1.0" encoding="UTF-8"?>
<!-- Created with Inkscape (http://www.inkscape.org/) -->
<svg width="12" height="12" version="1.1" viewBox="0 0 12 12" xmlns="http://www.w3.org/2000/svg">
 <g transform="translate(-20 -20)">
  <path d="m20.443 24.006a2 2 0 0 0-0.0918 0.01172 6 6 0 0 0-0.35156 1.9824 6 6 0 0 0 0.35156 1.9824 2 2 0 0 0 1.6484-0.56836 2 2 0 0 0 0-2.8281 2 2 0 0 0-1.5566-0.58008z" fill="#5c7ad6" stroke-width=".5"/>
  <circle cx="26" cy="26" r="3" stroke-width=".75"/>
  <g stroke-width=".5">
   <path d="m26 20a6 6 0 0 0-1.9824 0.35156 2 2 0 0 0 0.56836 1.6484 2 2 0 0 0 2.8281-1e-6 2 2 0 0 0 0.57031-1.6602 6 6 0 0 0-1.9844-0.33984z" fill="#52e081"/>
   <path d="m31.271 24.006a2 2 0 0 0-1.2715 0.58008 2 2 0 0 0 0 2.8281 2 2 0 0 0 1.6484 0.56836 6 6 0 0 0 0.35156-1.9824 6 6 0 0 0-0.33789-1.9805 2 2 0 0 0-0.39062-0.01367z" fill="#f3c"/>
   <path d="m25.857 29.42a2 2 0 0 0-1.2715 0.58008 2 2 0 0 0-0.56836 1.6484 6 6 0 0 0 1.9824 0.35156 6 6 0 0 0 1.9863-0.35352 2 2 0 0 0-0.57226-1.6465 2 2 0 0 0-1.5566-0.58008z" fill="#f5b83d"/>
  </g>
  <text x="104.64368" y="49.999996" fill="#ff0000" font-family="Poppins" font-weight="800" xml:space="preserve"><tspan x="104.64368" y="49.999996"/></text>
 </g>
</svg>
