<?xml version="1.0" encoding="UTF-8" standalone="no"?>
<!-- Created with Inkscape (http://www.inkscape.org/) -->

<svg
   width="86"
   height="11.999997"
   viewBox="0 0 86 11.999998"
   version="1.1"
   id="svg1"
   sodipodi:docname="logo.svg"
   inkscape:version="1.4 (e7c3feb100, 2024-10-09)"
   xmlns:inkscape="http://www.inkscape.org/namespaces/inkscape"
   xmlns:sodipodi="http://sodipodi.sourceforge.net/DTD/sodipodi-0.dtd"
   xmlns="http://www.w3.org/2000/svg"
   xmlns:svg="http://www.w3.org/2000/svg">
  <sodipodi:namedview
     id="namedview1"
     pagecolor="#ffffff"
     bordercolor="#000000"
     borderopacity="0.25"
     inkscape:showpageshadow="2"
     inkscape:pageopacity="0.0"
     inkscape:pagecheckerboard="0"
     inkscape:deskcolor="#d1d1d1"
     inkscape:document-units="px"
     showgrid="true"
     showguides="false"
     inkscape:zoom="11.72532"
     inkscape:cx="23.49616"
     inkscape:cy="4.94656"
     inkscape:window-width="1366"
     inkscape:window-height="700"
     inkscape:window-x="0"
     inkscape:window-y="0"
     inkscape:window-maximized="1"
     inkscape:current-layer="layer1">
    <inkscape:grid
       id="grid1"
       units="px"
       originx="-19.999998"
       originy="-20"
       spacingx="1"
       spacingy="1"
       empcolor="#0099e5"
       empopacity="0.30196078"
       color="#0099e5"
       opacity="0.14901961"
       empspacing="4"
       enabled="true"
       visible="true" />
    <sodipodi:guide
       position="27.497622,-12.024001"
       orientation="0,-1"
       id="guide29"
       inkscape:locked="false" />
    <sodipodi:guide
       position="27.033303,-9.9600007"
       orientation="0,-1"
       id="guide30"
       inkscape:locked="false" />
    <sodipodi:guide
       position="27.003303,-10.884001"
       orientation="0,-1"
       id="guide31"
       inkscape:locked="false" />
    <sodipodi:guide
       position="17.753294,-12.024001"
       orientation="-0.83620151,-0.54842232"
       id="guide32"
       inkscape:locked="false" />
    <sodipodi:guide
       position="17.753294,-12.2782"
       orientation="1,0"
       id="guide33"
       inkscape:locked="false" />
    <sodipodi:guide
       position="48.335302,-14.916001"
       orientation="0,-1"
       id="guide35"
       inkscape:locked="false" />
    <sodipodi:guide
       position="33.753294,-8.1840005"
       orientation="0,-1"
       id="guide36"
       inkscape:locked="false" />
    <sodipodi:guide
       position="41.459292,-29.300002"
       orientation="0,-1"
       id="guide37"
       inkscape:locked="false" />
    <sodipodi:guide
       position="41.243292,-30.908002"
       orientation="0,-1"
       id="guide38"
       inkscape:locked="false" />
    <sodipodi:guide
       position="39.485304,2.0839993"
       orientation="1,0"
       id="guide46"
       inkscape:locked="false" />
    <sodipodi:guide
       position="39.221739,4.4786619"
       orientation="0.83569384,0.5491956"
       id="guide47"
       inkscape:locked="false" />
    <sodipodi:guide
       position="39.485302,4.0776034"
       orientation="0,-1"
       id="guide48"
       inkscape:locked="false" />
  </sodipodi:namedview>
  <defs
     id="defs1" />
  <g
     inkscape:label="Capa 1"
     inkscape:groupmode="layer"
     id="layer1"
     transform="translate(-20,-20)">
    <path
       style="font-weight:800;font-family:Poppins;-inkscape-font-specification:'Poppins Ultra-Bold'"
       d="m 39.653812,50.915997 -1.900519,-2.892 -0.03148,2.892 h -2.352 v -6.732 h 3.708 c 0.68,0 1.256,0.09951 1.728,0.298524 0.472,0.192382 0.828,0.461053 1.068,0.806014 0.24,0.338327 0.36,0.719775 0.36,1.144342 0,0.477637 -0.16,0.898888 -0.48,1.26375 -0.312,0.358229 -0.620107,0.541369 -1.08732,0.756427 l 1.61532,2.462943 z m -1.900518,-4.031999 h 1.512 c 0.204,0 0.357,-0.03981 0.459,-0.119429 0.102,-0.07962 0.153,-0.194857 0.153,-0.345714 0,-0.142477 -0.05355,-0.253524 -0.16065,-0.333143 -0.102,-0.08381 -0.25245,-0.125715 -0.45135,-0.125715 h -1.512 z"
       id="text25"
       sodipodi:nodetypes="cccccsccscccccssscscc" />
    <circle
       style="fill:#ffffff;fill-opacity:1;stroke-width:1.5"
       id="circle10"
       cx="26"
       cy="10"
       r="6.0000019" />
    <circle
       style="fill:#52e081;fill-opacity:1;stroke-width:0.75"
       id="path1"
       cx="29"
       cy="39.000004"
       r="3" />
    <circle
       style="fill:#ff33cc;fill-opacity:1;stroke-width:0.75"
       id="circle1"
       cx="29"
       cy="45"
       r="3" />
    <circle
       style="fill:#f5b83d;fill-opacity:1;stroke-width:0.75"
       id="circle2"
       cx="23"
       cy="45"
       r="3.0000002" />
    <circle
       style="fill:#5c7ad6;fill-opacity:1;stroke-width:0.75"
       id="circle3"
       cx="23"
       cy="39"
       r="3.0000005" />
    <circle
       style="fill:#ffffff;fill-opacity:1;stroke-width:1.25"
       id="circle4"
       cx="26"
       cy="42"
       r="5.0000005" />
    <circle
       style="fill:#000000;fill-opacity:1;stroke-width:0.5"
       id="circle5"
       cx="26"
       cy="42"
       r="2" />
    <path
       id="circle1-5"
       style="fill:#ff33cc;fill-opacity:1;stroke-width:0.75"
       d="M 29.90625,50.140623 A 4,4 0 0 1 30,50.999998 4,4 0 0 1 26.705078,54.929686 3,3 0 0 0 29,55.999998 a 3,3 0 0 0 3,-3 3,3 0 0 0 -2.09375,-2.859375 z" />
    <path
       id="circle2-3"
       style="fill:#5c7ad6;fill-opacity:1;stroke-width:0.75"
       d="M 22.103516,50.140623 A 3.0000002,3.0000002 0 0 0 20,52.999998 a 3.0000002,3.0000002 0 0 0 3,3 3.0000002,3.0000002 0 0 0 2.294922,-1.070312 A 4,4 0 0 1 22,50.999998 4,4 0 0 1 22.103516,50.140623 Z" />
    <circle
       style="fill:#000000;fill-opacity:1;stroke-width:0.5"
       id="circle5-6"
       cx="26.000002"
       cy="52"
       r="2" />
    <text
       xml:space="preserve"
       style="text-align:start;writing-mode:lr-tb;direction:ltr;text-anchor:start;fill:#000000;fill-opacity:1"
       x="34.729294"
       y="29.915998"
       id="text5"><tspan
         sodipodi:role="line"
         id="tspan5"
         x="34.729294"
         y="29.915998"
         style="font-style:normal;font-variant:normal;font-weight:800;font-stretch:normal;font-family:Poppins;-inkscape-font-specification:'Poppins Ultra-Bold';fill:#000000">scorewheel</tspan></text>
    <circle
       style="fill:#52e081;fill-opacity:1;stroke-width:0.25"
       id="circle6"
       cx="14.313707"
       cy="22.455847"
       r="0.99999869"
       transform="rotate(-45)" />
    <circle
       style="fill:#ff33cc;fill-opacity:1;stroke-width:0.25"
       id="circle7"
       cx="14.313707"
       cy="28.455845"
       r="1.0000001"
       transform="rotate(-45)" />
    <circle
       style="fill:#f5b83d;fill-opacity:1;stroke-width:0.25"
       id="circle8"
       cx="8.3137083"
       cy="28.455845"
       r="1.0000001"
       transform="rotate(-45)" />
    <circle
       style="fill:#5c7ad6;fill-opacity:1;stroke-width:0.25"
       id="circle9"
       cx="8.3137083"
       cy="22.455845"
       r="1"
       transform="rotate(-45)" />
    <circle
       style="fill:#000000;fill-opacity:1;stroke-width:0.5"
       id="circle11"
       cx="26"
       cy="10"
       r="2" />
    <path
       id="circle16"
       style="fill:#5c7ad6;fill-opacity:1;stroke-width:0.5"
       d="m 20.44336,24.005862 a 1.9999999,1.9999999 0 0 0 -0.0918,0.01172 A 6.0000019,6.0000019 0 0 0 20,26.000003 6.0000019,6.0000019 0 0 0 20.351563,27.982425 1.9999999,1.9999999 0 0 0 22,27.414065 1.9999999,1.9999999 0 0 0 22,24.58594 1.9999999,1.9999999 0 0 0 20.44336,24.005862 Z" />
    <circle
       style="fill:#000000;fill-opacity:1;stroke-width:0.75"
       id="circle17"
       cx="26"
       cy="26.000004"
       r="3.0000019" />
    <path
       id="circle18"
       style="fill:#52e081;fill-opacity:1;stroke-width:0.5"
       d="m 26,20.000002 a 6.0000019,6.0000019 0 0 0 -1.982422,0.351563 1.9999999,1.9999999 0 0 0 0.568359,1.648438 1.9999999,1.9999999 0 0 0 2.828126,-1e-6 1.9999999,1.9999999 0 0 0 0.570312,-1.660156 A 6.0000019,6.0000019 0 0 0 26,20.000002 Z" />
    <path
       id="circle19"
       style="fill:#ff33cc;fill-opacity:1;stroke-width:0.5"
       d="M 31.271484,24.005862 A 1.9999999,1.9999999 0 0 0 30,24.58594 1.9999999,1.9999999 0 0 0 30,27.414064 1.9999999,1.9999999 0 0 0 31.648438,27.982425 6.0000019,6.0000019 0 0 0 32,26.000003 6.0000019,6.0000019 0 0 0 31.662109,24.019534 1.9999999,1.9999999 0 0 0 31.271484,24.005862 Z" />
    <path
       id="circle20"
       style="fill:#f5b83d;fill-opacity:1;stroke-width:0.5"
       d="M 25.857422,29.419924 A 1.9999999,1.9999999 0 0 0 24.585937,30.000003 1.9999999,1.9999999 0 0 0 24.017578,31.64844 6.0000019,6.0000019 0 0 0 26,32.000003 6.0000019,6.0000019 0 0 0 27.986328,31.646487 1.9999999,1.9999999 0 0 0 27.414063,30.000003 1.9999999,1.9999999 0 0 0 25.857422,29.419924 Z" />
    <path
       style="font-weight:800;font-family:Poppins;-inkscape-font-specification:'Poppins Ultra-Bold'"
       d="m 74.089292,42.035997 v 8.88 h -2.352 v -8.88 z"
       id="path29" />
    <path
       style="font-weight:800;font-family:Poppins;-inkscape-font-specification:'Poppins Ultra-Bold'"
       d="m 65.552713,51.449997 q 1.152,0 1.824,0.78 0.684,0.768 0.684,2.088 v 3.924 h -2.352 v -3.612 q 0,-0.576 -0.3,-0.9 -0.3,-0.336 -0.804,-0.336 -0.528,0 -0.828,0.336 -0.3,0.324 -0.3,0.9 v 3.612 h -2.352 v -8.88 h 2.352 v 3.108 q 0.312,-0.456 0.84,-0.732 0.54,-0.288 1.236,-0.288 z"
       id="path27" />
    <path
       style="font-weight:800;font-family:Poppins;-inkscape-font-specification:'Poppins Ultra-Bold'"
       d="m 72.061093,61.567996 v 6.732 h -2.352 v -1.391998 h -2.232 v 1.391998 h -2.352 v -6.732 h 2.352 v 3.732002 h 2.232 v -3.732002 z"
       id="path26"
       sodipodi:nodetypes="ccccccccccccc" />
    <path
       style="font-weight:800;font-family:Poppins;-inkscape-font-specification:'Poppins Ultra-Bold';fill:#ff0000"
       d="m 37.753294,45.371997 c 0.264,-0.384 0.584,-0.688 0.96,-0.912 0.376,-0.224 0.78,-0.336 1.212,-0.336 v 2.508 h -0.66 c -0.512,0 -0.892,0.1 -1.14,0.3 -0.248,0.2 -0.372,0.548 -0.372,1.044 v 2.94 h -2.352 v -6.732 h 2.352 z"
       id="path25"
       sodipodi:nodetypes="csccsssccccc" />
    <path
       d="m 50.441303,47.471997 q 0,0.276 -0.036,0.552 h -4.452 q 0.036,0.552 0.3,0.828 0.276,0.264 0.696,0.264 0.588,0 0.84,-0.528 h 2.508 q -0.156,0.696 -0.612,1.248 -0.444,0.54 -1.128,0.852 -0.684,0.312 -1.512,0.312 -0.996,0 -1.776,-0.42 -0.768,-0.42 -1.212,-1.2 -0.432,-0.78 -0.432,-1.836 0,-1.056 0.432,-1.824 0.432,-0.78 1.2,-1.2 0.78,-0.42 1.788,-0.42 0.996,0 1.764,0.408 0.768,0.408 1.2,1.176 0.432,0.756 0.432,1.788 z m -2.4,-0.588 q 0,-0.432 -0.288,-0.672 -0.288,-0.252 -0.72,-0.252 -0.432,0 -0.708,0.24 -0.276,0.228 -0.36,0.684 z m 5.711991,-1.512 q 0.396,-0.576 0.96,-0.912 0.564,-0.336 1.212,-0.336 v 2.508 h -0.66 q -0.768,0 -1.14,0.3 -0.372,0.3 -0.372,1.044 v 2.94 h -2.352 v -6.732 h 2.352 z"
       id="text29"
       style="font-weight:800;font-family:Poppins;-inkscape-font-specification:'Poppins Ultra-Bold';fill:#ff0000"
       aria-label="er" />
    <text
       xml:space="preserve"
       style="font-style:normal;font-variant:normal;font-weight:800;font-stretch:normal;font-family:Poppins;-inkscape-font-specification:'Poppins Ultra-Bold';text-align:start;writing-mode:lr-tb;direction:ltr;text-anchor:start;fill:#ff0000;fill-opacity:1"
       x="104.64368"
       y="49.999996"
       id="text31"><tspan
         sodipodi:role="line"
         id="tspan31"
         x="104.64368"
         y="49.999996"></tspan></text>
    <path
       d="m 50.441303,47.471997 q 0,0.276 -0.036,0.552 h -4.452 q 0.036,0.552 0.3,0.828 0.276,0.264 0.696,0.264 0.588,0 0.84,-0.528 h 2.508 q -0.156,0.696 -0.612,1.248 -0.444,0.54 -1.128,0.852 -0.684,0.312 -1.512,0.312 -0.996,0 -1.776,-0.42 -0.768,-0.42 -1.212,-1.2 -0.432,-0.78 -0.432,-1.836 0,-1.056 0.432,-1.824 0.432,-0.78 1.2,-1.2 0.78,-0.42 1.788,-0.42 0.996,0 1.764,0.408 0.768,0.408 1.2,1.176 0.432,0.756 0.432,1.788 z m -2.4,-0.588 q 0,-0.432 -0.288,-0.672 -0.288,-0.252 -0.72,-0.252 -0.432,0 -0.708,0.24 -0.276,0.228 -0.36,0.684 z m 5.711991,-1.512 q 0.396,-0.576 0.96,-0.912 0.564,-0.336 1.212,-0.336 v 2.508 h -0.66 q -0.768,0 -1.14,0.3 -0.372,0.3 -0.372,1.044 v 2.94 h -2.352 v -6.732 h 2.352 z"
       id="path33"
       style="font-weight:800;font-family:Poppins;-inkscape-font-specification:'Poppins Ultra-Bold';fill:#ff0000"
       aria-label="er" />
    <path
       style="font-weight:800;font-family:Poppins;-inkscape-font-specification:'Poppins Ultra-Bold'"
       d="m 82.813122,61.267459 -1.90052,-2.892 -0.03148,2.892 h -2.352 v -6.732 h 3.708 c 0.68,0 1.256,0.09951 1.728,0.298524 0.472,0.192382 0.828001,0.461053 1.068,0.806014 0.24,0.338327 0.36,0.719775 0.36,1.144342 0,0.477637 -0.16,0.898888 -0.48,1.26375 -0.311999,0.358229 -0.620106,0.541369 -1.087319,0.756427 l 1.615319,2.462943 z M 80.912604,57.23546 h 1.512 c 0.204,0 0.357,-0.03981 0.459,-0.119429 0.102,-0.07962 0.153,-0.194857 0.153,-0.345714 0,-0.142477 -0.05355,-0.253524 -0.16065,-0.333143 -0.102,-0.08381 -0.25245,-0.125715 -0.45135,-0.125715 h -1.512 z"
       id="path34"
       sodipodi:nodetypes="cccccsccscccccssscscc" />
    <path
       d="m 50.441303,67.471997 q 0,0.276 -0.036,0.552 h -4.452 q 0.036,0.552 0.3,0.828 0.276,0.264 0.696,0.264 0.588,0 0.84,-0.528 h 2.508 q -0.156,0.696 -0.612,1.248 -0.444,0.54 -1.128,0.852 -0.684,0.312 -1.512,0.312 -0.996,0 -1.776,-0.42 -0.768,-0.42 -1.212,-1.2 -0.432,-0.78 -0.432,-1.836 0,-1.056 0.432,-1.824 0.432,-0.78 1.2,-1.2 0.78,-0.42 1.788,-0.42 0.996,0 1.764,0.408 0.768,0.408 1.2,1.176 0.432,0.756 0.432,1.788 z m -2.4,-0.588 q 0,-0.432 -0.288,-0.672 -0.288,-0.252 -0.72,-0.252 -0.432,0 -0.708,0.24 -0.276,0.228 -0.36,0.684 z m 5.711991,-1.512 q 0.396,-0.576 0.96,-0.912 0.564,-0.336 1.212,-0.336 v 2.508 h -0.66 q -0.768,0 -1.14,0.3 -0.372,0.3 -0.372,1.044 v 2.94 h -2.352 v -6.732 h 2.352 z"
       id="path35"
       style="font-weight:800;font-family:Poppins;-inkscape-font-specification:'Poppins Ultra-Bold';fill:#ff0000"
       aria-label="er" />
    <path
       style="font-weight:800;font-family:Poppins;-inkscape-font-specification:'Poppins Ultra-Bold'"
       d="m 76.370985,66.499996 h 2.628 v 1.8 h -4.98 v -6.732 h 2.352 z"
       id="path28"
       sodipodi:nodetypes="ccccccc" />
    <path
       style="font-weight:800;font-family:Poppins;-inkscape-font-specification:'Poppins Ultra-Bold'"
       d="m 63.271304,13.183998 -0.984,-1.392 h -0.948 v 1.392 h -2.352 v -6.732 h 3.708 c 0.68,0 1.256,0.12 1.728,0.36 0.472,0.232 0.828,0.556 1.068,0.972 0.24,0.408 0.36,0.868 0.36,1.38 0,0.576 -0.16,1.084 -0.48,1.524 -0.312,0.432 -0.440994,0.580001 -0.594,0.726291 l 1.122,1.769709 z m -1.932,-3 h 1.164 c 0.32,0 0.56,-0.076 0.72,-0.228 0.16,-0.152 0.24,-0.372 0.24,-0.66 0,-0.272 -0.084,-0.484 -0.252,-0.636 -0.16,-0.16 -0.396,-0.24 -0.708,-0.24 h -1.164 z"
       id="path31"
       sodipodi:nodetypes="ccccccsccscccccssscscc" />
  </g>
</svg>
